# WaveFront *.obj file (generated by CINEMA 4D)

v -50 -10 50
v -50 10 50
v -30 -10 50
v -30 10 50
v -10 -10 50
v -10 10 50
v 10 -10 50
v 10 10 50
v 30 -10 50
v 30 10 50
v 50 -10 50
v 50 10 50
v 50 -10 30
v 50 10 30
v 50 -10 10
v 50 10 10
v 50 -10 -10
v 50 10 -10
v 50 -10 -30
v 50 10 -30
v 50 -10 -50
v 50 10 -50
v 30 -10 -50
v 30 10 -50
v 10 -10 -50
v 10 10 -50
v -10 -10 -50
v -10 10 -50
v -30 -10 -50
v -30 10 -50
v -50 -10 -50
v -50 10 -50
v -50 -10 -30
v -50 10 -30
v -50 -10 -10
v -50 10 -10
v -50 -10 10
v -50 10 10
v -50 -10 30
v -50 10 30
v -30 10 30
v -30 10 10
v -30 10 -10
v -30 10 -30
v -10 10 30
v -10 10 10
v -10 10 -10
v -10 10 -30
v 10 10 30
v 10 10 10
v 10 10 -10
v 10 10 -30
v 30 10 30
v 30 10 10
v 30 10 -10
v 30 10 -30
v -28.46999931335449 -3.48888897895813 -28.46999931335449
v -28.46999931335449 -3.48888897895813 -9.48999977111816
v -28.46999931335449 -3.48888897895813 9.48999977111816
v -28.46999931335449 -3.48888897895813 28.46999931335449
v -9.48999977111816 -3.48888897895813 -28.46999931335449
v -9.48999977111816 -3.48888897895813 -9.48999977111816
v -9.48999977111816 -3.48888897895813 9.48999977111816
v -9.48999977111816 -3.48888897895813 28.46999931335449
v 9.48999977111816 -3.48888897895813 -28.46999931335449
v 9.48999977111816 -3.48888897895813 -9.48999977111816
v 9.48999977111816 -3.48888897895813 9.48999977111816
v 9.48999977111816 -3.48888897895813 28.46999931335449
v 28.46999931335449 -3.48888897895813 -28.46999931335449
v 28.46999931335449 -3.48888897895813 -9.48999977111816
v 28.46999931335449 -3.48888897895813 9.48999977111816
v 28.46999931335449 -3.48888897895813 28.46999931335449
v -47.45000076293945 -10 47.45000076293945
v -28.46999931335449 -10 47.45000076293945
v -9.48999977111816 -10 47.45000076293945
v 9.48999977111816 -10 47.45000076293945
v 28.46999931335449 -10 47.45000076293945
v 47.45000076293945 -10 47.45000076293945
v 47.45000076293945 -10 28.46999931335449
v 47.45000076293945 -10 9.48999977111816
v 47.45000076293945 -10 -9.48999977111816
v 47.45000076293945 -10 -28.46999931335449
v 47.45000076293945 -10 -47.45000076293945
v 28.46999931335449 -10 -47.45000076293945
v 9.48999977111816 -10 -47.45000076293945
v -9.48999977111816 -10 -47.45000076293945
v -28.46999931335449 -10 -47.45000076293945
v -47.45000076293945 -10 -47.45000076293945
v -47.45000076293945 -10 -28.46999931335449
v -47.45000076293945 -10 -9.48999977111816
v -47.45000076293945 -10 9.48999977111816
v -47.45000076293945 -10 28.46999931335449
v -47.45000076293945 -3.48888897895813 47.45000076293945
v -28.46999931335449 -3.48888897895813 47.45000076293945
v -9.48999977111816 -3.48888897895813 47.45000076293945
v 9.48999977111816 -3.48888897895813 47.45000076293945
v 28.46999931335449 -3.48888897895813 47.45000076293945
v 47.45000076293945 -3.48888897895813 47.45000076293945
v 47.45000076293945 -3.48888897895813 28.46999931335449
v 47.45000076293945 -3.48888897895813 9.48999977111816
v 47.45000076293945 -3.48888897895813 -9.48999977111816
v 47.45000076293945 -3.48888897895813 -28.46999931335449
v 47.45000076293945 -3.48888897895813 -47.45000076293945
v 28.46999931335449 -3.48888897895813 -47.45000076293945
v 9.48999977111816 -3.48888897895813 -47.45000076293945
v -9.48999977111816 -3.48888897895813 -47.45000076293945
v -28.46999931335449 -3.48888897895813 -47.45000076293945
v -47.45000076293945 -3.48888897895813 -47.45000076293945
v -47.45000076293945 -3.48888897895813 -28.46999931335449
v -47.45000076293945 -3.48888897895813 -9.48999977111816
v -47.45000076293945 -3.48888897895813 9.48999977111816
v -47.45000076293945 -3.48888897895813 28.46999931335449
# 112 vertices

vn 0 0 1
vn 1 0 0
vn 0 0 -1
vn -1 0 0
vn 0 1 0
vn 0 -1 0
# 6 normals

vt 0 0 0
vt 0 1 0
vt 0.20000000298023 1 0
vt 0.20000000298023 0 0
vt 0.40000000596046 1 0
vt 0.40000000596046 0 0
vt 0.60000002384186 1 0
vt 0.60000002384186 0 0
vt 0.80000001192093 1 0
vt 0.80000001192093 0 0
vt 1 1 0
vt 1 0 0
vt 0 0.20000004768372 0
vt 0.19999998807907 0.20000004768372 0
vt 0.39999997615814 0.20000004768372 0
vt 0.60000002384186 0.20000004768372 0
vt 0.79999995231628 0.20000004768372 0
vt 1 0.20000004768372 0
vt 0 0.39999997615814 0
vt 0.19999998807907 0.39999997615814 0
vt 0.39999997615814 0.39999997615814 0
vt 0.60000002384186 0.39999997615814 0
vt 0.79999995231628 0.39999997615814 0
vt 1 0.39999997615814 0
vt 0 0.60000002384186 0
vt 0.19999998807907 0.60000002384186 0
vt 0.39999997615814 0.60000002384186 0
vt 0.60000002384186 0.60000002384186 0
vt 0.79999995231628 0.60000002384186 0
vt 1 0.60000002384186 0
vt 0 0.80000001192093 0
vt 0.19999998807907 0.80000001192093 0
vt 0.39999997615814 0.80000001192093 0
vt 0.60000002384186 0.80000001192093 0
vt 0.79999995231628 0.80000001192093 0
vt 1 0.80000001192093 0
vt 0.19999998807907 0 0
vt 0.39999997615814 0 0
vt 0.79999995231628 0 0
vt 0.19999998807907 1 0
vt 0.39999997615814 1 0
vt 0.79999995231628 1 0
# 42 texture coordinates

o Lamp_body
usemtl default
f 3/4/1 4/3/1 2/2/1 1/1/1
f 5/6/1 6/5/1 4/3/1 3/4/1
f 7/8/1 8/7/1 6/5/1 5/6/1
f 9/10/1 10/9/1 8/7/1 7/8/1
f 11/12/1 12/11/1 10/9/1 9/10/1
f 13/4/2 14/3/2 12/2/2 11/1/2
f 15/6/2 16/5/2 14/3/2 13/4/2
f 17/8/2 18/7/2 16/5/2 15/6/2
f 19/10/2 20/9/2 18/7/2 17/8/2
f 21/12/2 22/11/2 20/9/2 19/10/2
f 23/4/3 24/3/3 22/2/3 21/1/3
f 25/6/3 26/5/3 24/3/3 23/4/3
f 27/8/3 28/7/3 26/5/3 25/6/3
f 29/10/3 30/9/3 28/7/3 27/8/3
f 31/12/3 32/11/3 30/9/3 29/10/3
f 33/4/4 34/3/4 32/2/4 31/1/4
f 35/6/4 36/5/4 34/3/4 33/4/4
f 37/8/4 38/7/4 36/5/4 35/6/4
f 39/10/4 40/9/4 38/7/4 37/8/4
f 1/12/4 2/11/4 40/9/4 39/10/4
f 4/4/5 41/14/5 40/13/5 2/1/5
f 6/6/5 45/15/5 41/14/5 4/4/5
f 8/8/5 49/16/5 45/15/5 6/6/5
f 10/10/5 53/17/5 49/16/5 8/8/5
f 12/12/5 14/18/5 53/17/5 10/10/5
f 41/14/5 42/20/5 38/19/5 40/13/5
f 45/15/5 46/21/5 42/20/5 41/14/5
f 49/16/5 50/22/5 46/21/5 45/15/5
f 53/17/5 54/23/5 50/22/5 49/16/5
f 14/18/5 16/24/5 54/23/5 53/17/5
f 42/20/5 43/26/5 36/25/5 38/19/5
f 46/21/5 47/27/5 43/26/5 42/20/5
f 50/22/5 51/28/5 47/27/5 46/21/5
f 54/23/5 55/29/5 51/28/5 50/22/5
f 16/24/5 18/30/5 55/29/5 54/23/5
f 43/26/5 44/32/5 34/31/5 36/25/5
f 47/27/5 48/33/5 44/32/5 43/26/5
f 51/28/5 52/34/5 48/33/5 47/27/5
f 55/29/5 56/35/5 52/34/5 51/28/5
f 18/30/5 20/36/5 56/35/5 55/29/5
f 44/32/5 30/3/5 32/2/5 34/31/5
f 48/33/5 28/5/5 30/3/5 44/32/5
f 52/34/5 26/7/5 28/5/5 48/33/5
f 56/35/5 24/9/5 26/7/5 52/34/5
f 20/36/5 22/11/5 24/9/5 56/35/5
f 107/37/6 57/14/6 109/13/6 108/1/6
f 106/38/6 61/15/6 57/14/6 107/37/6
f 105/8/6 65/16/6 61/15/6 106/38/6
f 104/39/6 69/17/6 65/16/6 105/8/6
f 103/12/6 102/18/6 69/17/6 104/39/6
f 57/14/6 58/20/6 110/19/6 109/13/6
f 61/15/6 62/21/6 58/20/6 57/14/6
f 65/16/6 66/22/6 62/21/6 61/15/6
f 69/17/6 70/23/6 66/22/6 65/16/6
f 102/18/6 101/24/6 70/23/6 69/17/6
f 58/20/6 59/26/6 111/25/6 110/19/6
f 62/21/6 63/27/6 59/26/6 58/20/6
f 66/22/6 67/28/6 63/27/6 62/21/6
f 70/23/6 71/29/6 67/28/6 66/22/6
f 101/24/6 100/30/6 71/29/6 70/23/6
f 59/26/6 60/32/6 112/31/6 111/25/6
f 63/27/6 64/33/6 60/32/6 59/26/6
f 67/28/6 68/34/6 64/33/6 63/27/6
f 71/29/6 72/35/6 68/34/6 67/28/6
f 100/30/6 99/36/6 72/35/6 71/29/6
f 60/32/6 94/40/6 93/2/6 112/31/6
f 64/33/6 95/41/6 94/40/6 60/32/6
f 68/34/6 96/7/6 95/41/6 64/33/6
f 72/35/6 97/42/6 96/7/6 68/34/6
f 99/36/6 98/11/6 97/42/6 72/35/6
f 89/13/6 33/13/6 31/1/6 88/1/6
f 88/1/6 31/1/6 29/4/6 87/37/6
f 87/37/6 29/4/6 27/6/6 86/38/6
f 86/38/6 27/6/6 25/8/6 85/8/6
f 85/8/6 25/8/6 23/10/6 84/39/6
f 83/12/6 21/12/6 19/18/6 82/18/6
f 84/39/6 23/10/6 21/12/6 83/12/6
f 90/19/6 35/19/6 33/13/6 89/13/6
f 82/18/6 19/18/6 17/24/6 81/24/6
f 91/25/6 37/25/6 35/19/6 90/19/6
f 81/24/6 17/24/6 15/30/6 80/30/6
f 92/31/6 39/31/6 37/25/6 91/25/6
f 80/30/6 15/30/6 13/36/6 79/36/6
f 73/2/6 1/2/6 39/31/6 92/31/6
f 74/40/6 3/3/6 1/2/6 73/2/6
f 75/41/6 5/5/6 3/3/6 74/40/6
f 76/7/6 7/7/6 5/5/6 75/41/6
f 77/42/6 9/9/6 7/7/6 76/7/6
f 78/11/6 11/11/6 9/9/6 77/42/6
f 79/36/6 13/36/6 11/11/6 78/11/6
f 109/13/2 89/13/2 88/1/2 108/1/2
f 108/1/1 88/1/1 87/37/1 107/37/1
f 107/37/1 87/37/1 86/38/1 106/38/1
f 106/38/1 86/38/1 85/8/1 105/8/1
f 105/8/1 85/8/1 84/39/1 104/39/1
f 103/12/4 83/12/4 82/18/4 102/18/4
f 104/39/1 84/39/1 83/12/1 103/12/1
f 110/19/2 90/19/2 89/13/2 109/13/2
f 102/18/4 82/18/4 81/24/4 101/24/4
f 111/25/2 91/25/2 90/19/2 110/19/2
f 101/24/4 81/24/4 80/30/4 100/30/4
f 112/31/2 92/31/2 91/25/2 111/25/2
f 100/30/4 80/30/4 79/36/4 99/36/4
f 93/2/2 73/2/2 92/31/2 112/31/2
f 94/40/3 74/40/3 73/2/3 93/2/3
f 95/41/3 75/41/3 74/40/3 94/40/3
f 96/7/3 76/7/3 75/41/3 95/41/3
f 97/42/3 77/42/3 76/7/3 96/7/3
f 98/11/3 78/11/3 77/42/3 97/42/3
f 99/36/4 79/36/4 78/11/4 98/11/4

