# WaveFront *.obj file (generated by CINEMA 4D)

v -5 -5 1000
v 5 -5 1000
v -5 -5 -1000
v 5 -5 -1000
v -1.78873038291931 -4.0247163772583 -1000
v 5 5 -1000
v -1.78873038291931 -4.0247163772583 1000
v 5 5 1000
v 3.76851105690002 4.45201015472412 1000
v 3.76851105690002 4.45201015472412 -1000
v -0.34770253300667 -5 -1000
v -0.34770253300667 -5 1000
# 12 vertices

vn 0 -1 0
vn 0 -1 0
vn 0 0 -1
vn -0.64771980047226 0.76187860965729 0
vn -0.40654823184013 0.91362935304642 0
vn 0 0 1
vn 1 0 0
vn -0.59934151172638 0.80049341917038 0
vn -0.29059997200966 0.95684462785721 0
vn 0 -1 0
# 10 normals

vt 0 0.46522974967957 0
vt 0 1 0
vt 1 1 0
vt 1 0.46522974967957 0
vt 0 0 0
vt 1 0 0
# 6 texture coordinates

o Cube
usemtl Mat
f 11/4/1 4/3/2 2/2/2 12/1/1
f 10/4/3 6/3/3 4/2/3 11/1/3
f 9/4/4 8/3/5 6/2/5 10/1/4
f 12/4/6 2/3/6 8/2/6 9/1/6
f 4/6/7 6/3/7 8/2/7 2/5/7
f 5/6/8 3/3/9 1/2/9 7/5/8
f 10/1/4 5/5/8 7/6/8 9/4/4
f 10/4/3 11/1/3 3/5/3 5/6/3
f 12/1/1 1/5/10 3/6/10 11/4/1
f 9/1/6 7/5/6 1/6/6 12/4/6

