# WaveFront *.obj file (generated by CINEMA 4D)

v -1000 0 1000
v -1000 100 1000
v -1000 200 1000
v -1000 300 1000
v -1000 400 1000
v -875 0 1000
v -875 100 1000
v -875 200 1000
v -875 300 1000
v -875 400 1000
v -750 0 1000
v -750 100 1000
v -750 200 1000
v -750 300 1000
v -750 400 1000
v -625 0 1000
v -625 100 1000
v -625 200 1000
v -625 300 1000
v -625 400 1000
v -500 0 1000
v -500 100 1000
v -500 200 1000
v -500 300 1000
v -500 400 1000
v -375 0 1000
v -375 100 1000
v -375 200 1000
v -375 300 1000
v -375 400 1000
v -250 0 1000
v -250 100 1000
v -250 200 1000
v -250 300 1000
v -250 400 1000
v -125 0 1000
v -125 100 1000
v -125 200 1000
v -125 300 1000
v -125 400 1000
v 0 0 1000
v 0 100 1000
v 0 200 1000
v 0 300 1000
v 0 400 1000
v 125 0 1000
v 125 100 1000
v 125 200 1000
v 125 300 1000
v 125 400 1000
v 250 0 1000
v 250 100 1000
v 250 200 1000
v 250 300 1000
v 250 400 1000
v 375 0 1000
v 375 100 1000
v 375 200 1000
v 375 300 1000
v 375 400 1000
v 500 0 1000
v 500 100 1000
v 500 200 1000
v 500 300 1000
v 500 400 1000
v 625 0 1000
v 625 100 1000
v 625 200 1000
v 625 300 1000
v 625 400 1000
v 750 0 1000
v 750 100 1000
v 750 200 1000
v 750 300 1000
v 750 400 1000
v 875 0 1000
v 875 100 1000
v 875 200 1000
v 875 300 1000
v 875 400 1000
v 1000 0 1000
v 1000 100 1000
v 1000 200 1000
v 1000 300 1000
v 1000 400 1000
v 1000 0 875
v 1000 100 875
v 1000 200 875
v 1000 300 875
v 1000 400 875
v 1000 0 750
v 1000 100 750
v 1000 200 750
v 1000 300 750
v 1000 400 750
v 1000 0 625
v 1000 100 625
v 1000 200 625
v 1000 300 625
v 1000 400 625
v 1000 0 500
v 1000 100 500
v 1000 200 500
v 1000 300 500
v 1000 400 500
v 1000 0 375
v 1000 100 375
v 1000 200 375
v 1000 300 375
v 1000 400 375
v 1000 0 250
v 1000 100 250
v 1000 200 250
v 1000 300 250
v 1000 400 250
v 1000 0 125
v 1000 100 125
v 1000 200 125
v 1000 300 125
v 1000 400 125
v 1000 0 0
v 1000 100 0
v 1000 200 0
v 1000 300 0
v 1000 400 0
v 1000 0 -125
v 1000 100 -125
v 1000 200 -125
v 1000 300 -125
v 1000 400 -125
v 1000 0 -250
v 1000 100 -250
v 1000 200 -250
v 1000 300 -250
v 1000 400 -250
v 1000 0 -375
v 1000 100 -375
v 1000 200 -375
v 1000 300 -375
v 1000 400 -375
v 1000 0 -500
v 1000 100 -500
v 1000 200 -500
v 1000 300 -500
v 1000 400 -500
v 1000 0 -625
v 1000 100 -625
v 1000 200 -625
v 1000 300 -625
v 1000 400 -625
v 1000 0 -750
v 1000 100 -750
v 1000 200 -750
v 1000 300 -750
v 1000 400 -750
v 1000 0 -875
v 1000 100 -875
v 1000 200 -875
v 1000 300 -875
v 1000 400 -875
v 1000 0 -1000
v 1000 100 -1000
v 1000 200 -1000
v 1000 300 -1000
v 1000 400 -1000
v 875 0 -1000
v 875 100 -1000
v 875 200 -1000
v 875 300 -1000
v 875 400 -1000
v 750 0 -1000
v 750 100 -1000
v 750 200 -1000
v 750 300 -1000
v 750 400 -1000
v 625 0 -1000
v 625 100 -1000
v 625 200 -1000
v 625 300 -1000
v 625 400 -1000
v 500 0 -1000
v 500 100 -1000
v 500 200 -1000
v 500 300 -1000
v 500 400 -1000
v 375 0 -1000
v 375 100 -1000
v 375 200 -1000
v 375 300 -1000
v 375 400 -1000
v 250 0 -1000
v 250 100 -1000
v 250 200 -1000
v 250 300 -1000
v 250 400 -1000
v 125 0 -1000
v 125 100 -1000
v 125 200 -1000
v 125 300 -1000
v 125 400 -1000
v 0 0 -1000
v 0 100 -1000
v 0 200 -1000
v 0 300 -1000
v 0 400 -1000
v -125 0 -1000
v -125 100 -1000
v -125 200 -1000
v -125 300 -1000
v -125 400 -1000
v -250 0 -1000
v -250 100 -1000
v -250 200 -1000
v -250 300 -1000
v -250 400 -1000
v -375 0 -1000
v -375 100 -1000
v -375 200 -1000
v -375 300 -1000
v -375 400 -1000
v -500 0 -1000
v -500 100 -1000
v -500 200 -1000
v -500 300 -1000
v -500 400 -1000
v -625 0 -1000
v -625 100 -1000
v -625 200 -1000
v -625 300 -1000
v -625 400 -1000
v -750 0 -1000
v -750 100 -1000
v -750 200 -1000
v -750 300 -1000
v -750 400 -1000
v -875 0 -1000
v -875 100 -1000
v -875 200 -1000
v -875 300 -1000
v -875 400 -1000
v -1000 0 -1000
v -1000 100 -1000
v -1000 200 -1000
v -1000 300 -1000
v -1000 400 -1000
v -1000 0 -875
v -1000 100 -875
v -1000 200 -875
v -1000 300 -875
v -1000 400 -875
v -1000 0 -750
v -1000 100 -750
v -1000 200 -750
v -1000 300 -750
v -1000 400 -750
v -1000 0 -625
v -1000 100 -625
v -1000 200 -625
v -1000 300 -625
v -1000 400 -625
v -1000 0 -500
v -1000 100 -500
v -1000 200 -500
v -1000 300 -500
v -1000 400 -500
v -1000 0 -375
v -1000 100 -375
v -1000 200 -375
v -1000 300 -375
v -1000 400 -375
v -1000 0 -250
v -1000 100 -250
v -1000 200 -250
v -1000 300 -250
v -1000 400 -250
v -1000 0 -125
v -1000 100 -125
v -1000 200 -125
v -1000 300 -125
v -1000 400 -125
v -1000 0 0
v -1000 100 0
v -1000 200 0
v -1000 300 0
v -1000 400 0
v -1000 0 125
v -1000 100 125
v -1000 200 125
v -1000 300 125
v -1000 400 125
v -1000 0 250
v -1000 100 250
v -1000 200 250
v -1000 300 250
v -1000 400 250
v -1000 0 375
v -1000 100 375
v -1000 200 375
v -1000 300 375
v -1000 400 375
v -1000 0 500
v -1000 100 500
v -1000 200 500
v -1000 300 500
v -1000 400 500
v -1000 0 625
v -1000 100 625
v -1000 200 625
v -1000 300 625
v -1000 400 625
v -1000 0 750
v -1000 100 750
v -1000 200 750
v -1000 300 750
v -1000 400 750
v -1000 0 875
v -1000 100 875
v -1000 200 875
v -1000 300 875
v -1000 400 875
# 320 vertices

vn 0 0 -1
vn -1 0 0
vn 0 0 1
vn 1 0 0
# 4 normals

vt 0 0 0
vt 0.0625 0 0
vt 0.0625 0.25 0
vt 0 0.25 0
vt 0.125 0 0
vt 0.125 0.25 0
vt 0.1875 0 0
vt 0.1875 0.25 0
vt 0.25 0 0
vt 0.25 0.25 0
vt 0.3125 0 0
vt 0.3125 0.25 0
vt 0.375 0 0
vt 0.375 0.25 0
vt 0.4375 0 0
vt 0.4375 0.25 0
vt 0.5 0 0
vt 0.5 0.25 0
vt 0.5625 0 0
vt 0.5625 0.25 0
vt 0.625 0 0
vt 0.625 0.25 0
vt 0.6875 0 0
vt 0.6875 0.25 0
vt 0.75 0 0
vt 0.75 0.25 0
vt 0.8125 0 0
vt 0.8125 0.25 0
vt 0.875 0 0
vt 0.875 0.25 0
vt 0.9375 0 0
vt 0.9375 0.25 0
vt 1 0 0
vt 1 0.25 0
vt 0.0625 0.5 0
vt 0 0.5 0
vt 0.125 0.5 0
vt 0.1875 0.5 0
vt 0.25 0.5 0
vt 0.3125 0.5 0
vt 0.375 0.5 0
vt 0.4375 0.5 0
vt 0.5 0.5 0
vt 0.5625 0.5 0
vt 0.625 0.5 0
vt 0.6875 0.5 0
vt 0.75 0.5 0
vt 0.8125 0.5 0
vt 0.875 0.5 0
vt 0.9375 0.5 0
vt 1 0.5 0
vt 0.0625 0.75 0
vt 0 0.75 0
vt 0.125 0.75 0
vt 0.1875 0.75 0
vt 0.25 0.75 0
vt 0.3125 0.75 0
vt 0.375 0.75 0
vt 0.4375 0.75 0
vt 0.5 0.75 0
vt 0.5625 0.75 0
vt 0.625 0.75 0
vt 0.6875 0.75 0
vt 0.75 0.75 0
vt 0.8125 0.75 0
vt 0.875 0.75 0
vt 0.9375 0.75 0
vt 1 0.75 0
vt 0.0625 1 0
vt 0 1 0
vt 0.125 1 0
vt 0.1875 1 0
vt 0.25 1 0
vt 0.3125 1 0
vt 0.375 1 0
vt 0.4375 1 0
vt 0.5 1 0
vt 0.5625 1 0
vt 0.625 1 0
vt 0.6875 1 0
vt 0.75 1 0
vt 0.8125 1 0
vt 0.875 1 0
vt 0.9375 1 0
vt 1 1 0
# 85 texture coordinates

o WallsNew2
usemtl default
f 2/4/1 7/3/1 6/2/1 1/1/1
f 7/3/1 12/6/1 11/5/1 6/2/1
f 12/6/1 17/8/1 16/7/1 11/5/1
f 17/8/1 22/10/1 21/9/1 16/7/1
f 22/10/1 27/12/1 26/11/1 21/9/1
f 27/12/1 32/14/1 31/13/1 26/11/1
f 32/14/1 37/16/1 36/15/1 31/13/1
f 37/16/1 42/18/1 41/17/1 36/15/1
f 42/18/1 47/20/1 46/19/1 41/17/1
f 47/20/1 52/22/1 51/21/1 46/19/1
f 52/22/1 57/24/1 56/23/1 51/21/1
f 57/24/1 62/26/1 61/25/1 56/23/1
f 62/26/1 67/28/1 66/27/1 61/25/1
f 67/28/1 72/30/1 71/29/1 66/27/1
f 72/30/1 77/32/1 76/31/1 71/29/1
f 77/32/1 82/34/1 81/33/1 76/31/1
f 3/36/1 8/35/1 7/3/1 2/4/1
f 8/35/1 13/37/1 12/6/1 7/3/1
f 13/37/1 18/38/1 17/8/1 12/6/1
f 18/38/1 23/39/1 22/10/1 17/8/1
f 23/39/1 28/40/1 27/12/1 22/10/1
f 28/40/1 33/41/1 32/14/1 27/12/1
f 33/41/1 38/42/1 37/16/1 32/14/1
f 38/42/1 43/43/1 42/18/1 37/16/1
f 43/43/1 48/44/1 47/20/1 42/18/1
f 48/44/1 53/45/1 52/22/1 47/20/1
f 53/45/1 58/46/1 57/24/1 52/22/1
f 58/46/1 63/47/1 62/26/1 57/24/1
f 63/47/1 68/48/1 67/28/1 62/26/1
f 68/48/1 73/49/1 72/30/1 67/28/1
f 73/49/1 78/50/1 77/32/1 72/30/1
f 78/50/1 83/51/1 82/34/1 77/32/1
f 4/53/1 9/52/1 8/35/1 3/36/1
f 9/52/1 14/54/1 13/37/1 8/35/1
f 14/54/1 19/55/1 18/38/1 13/37/1
f 19/55/1 24/56/1 23/39/1 18/38/1
f 24/56/1 29/57/1 28/40/1 23/39/1
f 29/57/1 34/58/1 33/41/1 28/40/1
f 34/58/1 39/59/1 38/42/1 33/41/1
f 39/59/1 44/60/1 43/43/1 38/42/1
f 44/60/1 49/61/1 48/44/1 43/43/1
f 49/61/1 54/62/1 53/45/1 48/44/1
f 54/62/1 59/63/1 58/46/1 53/45/1
f 59/63/1 64/64/1 63/47/1 58/46/1
f 64/64/1 69/65/1 68/48/1 63/47/1
f 69/65/1 74/66/1 73/49/1 68/48/1
f 74/66/1 79/67/1 78/50/1 73/49/1
f 79/67/1 84/68/1 83/51/1 78/50/1
f 5/70/1 10/69/1 9/52/1 4/53/1
f 10/69/1 15/71/1 14/54/1 9/52/1
f 15/71/1 20/72/1 19/55/1 14/54/1
f 20/72/1 25/73/1 24/56/1 19/55/1
f 25/73/1 30/74/1 29/57/1 24/56/1
f 30/74/1 35/75/1 34/58/1 29/57/1
f 35/75/1 40/76/1 39/59/1 34/58/1
f 40/76/1 45/77/1 44/60/1 39/59/1
f 45/77/1 50/78/1 49/61/1 44/60/1
f 50/78/1 55/79/1 54/62/1 49/61/1
f 55/79/1 60/80/1 59/63/1 54/62/1
f 60/80/1 65/81/1 64/64/1 59/63/1
f 65/81/1 70/82/1 69/65/1 64/64/1
f 70/82/1 75/83/1 74/66/1 69/65/1
f 75/83/1 80/84/1 79/67/1 74/66/1
f 80/84/1 85/85/1 84/68/1 79/67/1
f 82/4/2 87/3/2 86/2/2 81/1/2
f 87/3/2 92/6/2 91/5/2 86/2/2
f 92/6/2 97/8/2 96/7/2 91/5/2
f 97/8/2 102/10/2 101/9/2 96/7/2
f 102/10/2 107/12/2 106/11/2 101/9/2
f 107/12/2 112/14/2 111/13/2 106/11/2
f 112/14/2 117/16/2 116/15/2 111/13/2
f 117/16/2 122/18/2 121/17/2 116/15/2
f 122/18/2 127/20/2 126/19/2 121/17/2
f 127/20/2 132/22/2 131/21/2 126/19/2
f 132/22/2 137/24/2 136/23/2 131/21/2
f 137/24/2 142/26/2 141/25/2 136/23/2
f 142/26/2 147/28/2 146/27/2 141/25/2
f 147/28/2 152/30/2 151/29/2 146/27/2
f 152/30/2 157/32/2 156/31/2 151/29/2
f 157/32/2 162/34/2 161/33/2 156/31/2
f 83/36/2 88/35/2 87/3/2 82/4/2
f 88/35/2 93/37/2 92/6/2 87/3/2
f 93/37/2 98/38/2 97/8/2 92/6/2
f 98/38/2 103/39/2 102/10/2 97/8/2
f 103/39/2 108/40/2 107/12/2 102/10/2
f 108/40/2 113/41/2 112/14/2 107/12/2
f 113/41/2 118/42/2 117/16/2 112/14/2
f 118/42/2 123/43/2 122/18/2 117/16/2
f 123/43/2 128/44/2 127/20/2 122/18/2
f 128/44/2 133/45/2 132/22/2 127/20/2
f 133/45/2 138/46/2 137/24/2 132/22/2
f 138/46/2 143/47/2 142/26/2 137/24/2
f 143/47/2 148/48/2 147/28/2 142/26/2
f 148/48/2 153/49/2 152/30/2 147/28/2
f 153/49/2 158/50/2 157/32/2 152/30/2
f 158/50/2 163/51/2 162/34/2 157/32/2
f 84/53/2 89/52/2 88/35/2 83/36/2
f 89/52/2 94/54/2 93/37/2 88/35/2
f 94/54/2 99/55/2 98/38/2 93/37/2
f 99/55/2 104/56/2 103/39/2 98/38/2
f 104/56/2 109/57/2 108/40/2 103/39/2
f 109/57/2 114/58/2 113/41/2 108/40/2
f 114/58/2 119/59/2 118/42/2 113/41/2
f 119/59/2 124/60/2 123/43/2 118/42/2
f 124/60/2 129/61/2 128/44/2 123/43/2
f 129/61/2 134/62/2 133/45/2 128/44/2
f 134/62/2 139/63/2 138/46/2 133/45/2
f 139/63/2 144/64/2 143/47/2 138/46/2
f 144/64/2 149/65/2 148/48/2 143/47/2
f 149/65/2 154/66/2 153/49/2 148/48/2
f 154/66/2 159/67/2 158/50/2 153/49/2
f 159/67/2 164/68/2 163/51/2 158/50/2
f 85/70/2 90/69/2 89/52/2 84/53/2
f 90/69/2 95/71/2 94/54/2 89/52/2
f 95/71/2 100/72/2 99/55/2 94/54/2
f 100/72/2 105/73/2 104/56/2 99/55/2
f 105/73/2 110/74/2 109/57/2 104/56/2
f 110/74/2 115/75/2 114/58/2 109/57/2
f 115/75/2 120/76/2 119/59/2 114/58/2
f 120/76/2 125/77/2 124/60/2 119/59/2
f 125/77/2 130/78/2 129/61/2 124/60/2
f 130/78/2 135/79/2 134/62/2 129/61/2
f 135/79/2 140/80/2 139/63/2 134/62/2
f 140/80/2 145/81/2 144/64/2 139/63/2
f 145/81/2 150/82/2 149/65/2 144/64/2
f 150/82/2 155/83/2 154/66/2 149/65/2
f 155/83/2 160/84/2 159/67/2 154/66/2
f 160/84/2 165/85/2 164/68/2 159/67/2
f 162/4/3 167/3/3 166/2/3 161/1/3
f 167/3/3 172/6/3 171/5/3 166/2/3
f 172/6/3 177/8/3 176/7/3 171/5/3
f 177/8/3 182/10/3 181/9/3 176/7/3
f 182/10/3 187/12/3 186/11/3 181/9/3
f 187/12/3 192/14/3 191/13/3 186/11/3
f 192/14/3 197/16/3 196/15/3 191/13/3
f 197/16/3 202/18/3 201/17/3 196/15/3
f 202/18/3 207/20/3 206/19/3 201/17/3
f 207/20/3 212/22/3 211/21/3 206/19/3
f 212/22/3 217/24/3 216/23/3 211/21/3
f 217/24/3 222/26/3 221/25/3 216/23/3
f 222/26/3 227/28/3 226/27/3 221/25/3
f 227/28/3 232/30/3 231/29/3 226/27/3
f 232/30/3 237/32/3 236/31/3 231/29/3
f 237/32/3 242/34/3 241/33/3 236/31/3
f 163/36/3 168/35/3 167/3/3 162/4/3
f 168/35/3 173/37/3 172/6/3 167/3/3
f 173/37/3 178/38/3 177/8/3 172/6/3
f 178/38/3 183/39/3 182/10/3 177/8/3
f 183/39/3 188/40/3 187/12/3 182/10/3
f 188/40/3 193/41/3 192/14/3 187/12/3
f 193/41/3 198/42/3 197/16/3 192/14/3
f 198/42/3 203/43/3 202/18/3 197/16/3
f 203/43/3 208/44/3 207/20/3 202/18/3
f 208/44/3 213/45/3 212/22/3 207/20/3
f 213/45/3 218/46/3 217/24/3 212/22/3
f 218/46/3 223/47/3 222/26/3 217/24/3
f 223/47/3 228/48/3 227/28/3 222/26/3
f 228/48/3 233/49/3 232/30/3 227/28/3
f 233/49/3 238/50/3 237/32/3 232/30/3
f 238/50/3 243/51/3 242/34/3 237/32/3
f 164/53/3 169/52/3 168/35/3 163/36/3
f 169/52/3 174/54/3 173/37/3 168/35/3
f 174/54/3 179/55/3 178/38/3 173/37/3
f 179/55/3 184/56/3 183/39/3 178/38/3
f 184/56/3 189/57/3 188/40/3 183/39/3
f 189/57/3 194/58/3 193/41/3 188/40/3
f 194/58/3 199/59/3 198/42/3 193/41/3
f 199/59/3 204/60/3 203/43/3 198/42/3
f 204/60/3 209/61/3 208/44/3 203/43/3
f 209/61/3 214/62/3 213/45/3 208/44/3
f 214/62/3 219/63/3 218/46/3 213/45/3
f 219/63/3 224/64/3 223/47/3 218/46/3
f 224/64/3 229/65/3 228/48/3 223/47/3
f 229/65/3 234/66/3 233/49/3 228/48/3
f 234/66/3 239/67/3 238/50/3 233/49/3
f 239/67/3 244/68/3 243/51/3 238/50/3
f 165/70/3 170/69/3 169/52/3 164/53/3
f 170/69/3 175/71/3 174/54/3 169/52/3
f 175/71/3 180/72/3 179/55/3 174/54/3
f 180/72/3 185/73/3 184/56/3 179/55/3
f 185/73/3 190/74/3 189/57/3 184/56/3
f 190/74/3 195/75/3 194/58/3 189/57/3
f 195/75/3 200/76/3 199/59/3 194/58/3
f 200/76/3 205/77/3 204/60/3 199/59/3
f 205/77/3 210/78/3 209/61/3 204/60/3
f 210/78/3 215/79/3 214/62/3 209/61/3
f 215/79/3 220/80/3 219/63/3 214/62/3
f 220/80/3 225/81/3 224/64/3 219/63/3
f 225/81/3 230/82/3 229/65/3 224/64/3
f 230/82/3 235/83/3 234/66/3 229/65/3
f 235/83/3 240/84/3 239/67/3 234/66/3
f 240/84/3 245/85/3 244/68/3 239/67/3
f 242/4/4 247/3/4 246/2/4 241/1/4
f 247/3/4 252/6/4 251/5/4 246/2/4
f 252/6/4 257/8/4 256/7/4 251/5/4
f 257/8/4 262/10/4 261/9/4 256/7/4
f 262/10/4 267/12/4 266/11/4 261/9/4
f 267/12/4 272/14/4 271/13/4 266/11/4
f 272/14/4 277/16/4 276/15/4 271/13/4
f 277/16/4 282/18/4 281/17/4 276/15/4
f 282/18/4 287/20/4 286/19/4 281/17/4
f 287/20/4 292/22/4 291/21/4 286/19/4
f 292/22/4 297/24/4 296/23/4 291/21/4
f 297/24/4 302/26/4 301/25/4 296/23/4
f 302/26/4 307/28/4 306/27/4 301/25/4
f 307/28/4 312/30/4 311/29/4 306/27/4
f 312/30/4 317/32/4 316/31/4 311/29/4
f 317/32/4 2/34/4 1/33/4 316/31/4
f 243/36/4 248/35/4 247/3/4 242/4/4
f 248/35/4 253/37/4 252/6/4 247/3/4
f 253/37/4 258/38/4 257/8/4 252/6/4
f 258/38/4 263/39/4 262/10/4 257/8/4
f 263/39/4 268/40/4 267/12/4 262/10/4
f 268/40/4 273/41/4 272/14/4 267/12/4
f 273/41/4 278/42/4 277/16/4 272/14/4
f 278/42/4 283/43/4 282/18/4 277/16/4
f 283/43/4 288/44/4 287/20/4 282/18/4
f 288/44/4 293/45/4 292/22/4 287/20/4
f 293/45/4 298/46/4 297/24/4 292/22/4
f 298/46/4 303/47/4 302/26/4 297/24/4
f 303/47/4 308/48/4 307/28/4 302/26/4
f 308/48/4 313/49/4 312/30/4 307/28/4
f 313/49/4 318/50/4 317/32/4 312/30/4
f 318/50/4 3/51/4 2/34/4 317/32/4
f 244/53/4 249/52/4 248/35/4 243/36/4
f 249/52/4 254/54/4 253/37/4 248/35/4
f 254/54/4 259/55/4 258/38/4 253/37/4
f 259/55/4 264/56/4 263/39/4 258/38/4
f 264/56/4 269/57/4 268/40/4 263/39/4
f 269/57/4 274/58/4 273/41/4 268/40/4
f 274/58/4 279/59/4 278/42/4 273/41/4
f 279/59/4 284/60/4 283/43/4 278/42/4
f 284/60/4 289/61/4 288/44/4 283/43/4
f 289/61/4 294/62/4 293/45/4 288/44/4
f 294/62/4 299/63/4 298/46/4 293/45/4
f 299/63/4 304/64/4 303/47/4 298/46/4
f 304/64/4 309/65/4 308/48/4 303/47/4
f 309/65/4 314/66/4 313/49/4 308/48/4
f 314/66/4 319/67/4 318/50/4 313/49/4
f 319/67/4 4/68/4 3/51/4 318/50/4
f 245/70/4 250/69/4 249/52/4 244/53/4
f 250/69/4 255/71/4 254/54/4 249/52/4
f 255/71/4 260/72/4 259/55/4 254/54/4
f 260/72/4 265/73/4 264/56/4 259/55/4
f 265/73/4 270/74/4 269/57/4 264/56/4
f 270/74/4 275/75/4 274/58/4 269/57/4
f 275/75/4 280/76/4 279/59/4 274/58/4
f 280/76/4 285/77/4 284/60/4 279/59/4
f 285/77/4 290/78/4 289/61/4 284/60/4
f 290/78/4 295/79/4 294/62/4 289/61/4
f 295/79/4 300/80/4 299/63/4 294/62/4
f 300/80/4 305/81/4 304/64/4 299/63/4
f 305/81/4 310/82/4 309/65/4 304/64/4
f 310/82/4 315/83/4 314/66/4 309/65/4
f 315/83/4 320/84/4 319/67/4 314/66/4
f 320/84/4 5/85/4 4/68/4 319/67/4

